<svg xmlns="http://www.w3.org/2000/svg" width="651" height="248" viewBox="0 0 651 248" data-theme="dark" data-conn="io/J4" data-cat="can" data-fill="#39c5cf" data-heading="io-j4-can2"><rect x="0.5" y="0.5" width="650" height="247" rx="10" fill="#0d1117" stroke="#30363d"/><text x="16" y="32" font-family="'IBM Plex Sans', -apple-system, 'Segoe UI', Helvetica, Arial, sans-serif" font-size="16" font-weight="700" fill="#e6edf3">J4 CAN2</text><text x="16" y="49" font-family="'IBM Plex Sans', -apple-system, 'Segoe UI', Helvetica, Arial, sans-serif" font-size="11" fill="#8b949e">JST-GH 1x4, side entry · DS-009 CAN</text><rect x="16" y="64" width="174" height="18" rx="5" fill="none" stroke="#8b949e" stroke-width="1.5"/><text x="24" y="76.6" font-family="'IBM Plex Sans', -apple-system, 'Segoe UI', Helvetica, Arial, sans-serif" font-size="10" font-weight="500" fill="#8b949e">120 Ω termination: fitted</text><rect x="22" y="96" width="44" height="124" rx="4" fill="#2d333b" stroke="#8b949e"/><rect x="18" y="104" width="4" height="108" rx="1" fill="#8b949e"/><rect x="271" y="133" width="191" height="50" rx="5" fill="#161b22" stroke="#8b949e"/><text x="366.5" y="157.0" text-anchor="middle" font-family="'IBM Plex Mono', ui-monospace, SFMono-Regular, Menlo, Consolas, monospace" font-size="11" font-weight="600" fill="#e6edf3">TJA1463</text><text x="366.5" y="168.0" text-anchor="middle" font-family="'IBM Plex Sans', -apple-system, 'Segoe UI', Helvetica, Arial, sans-serif" font-size="9" fill="#8b949e">CAN FD transceiver</text><text x="277" y="147.5" font-family="'IBM Plex Mono', ui-monospace, SFMono-Regular, Menlo, Consolas, monospace" font-size="10" font-weight="600" fill="#e6edf3">CANH</text><text x="456" y="147.5" text-anchor="end" font-family="'IBM Plex Mono', ui-monospace, SFMono-Regular, Menlo, Consolas, monospace" font-size="10" font-weight="600" fill="#e6edf3">TXD</text><line x1="462" y1="144.0" x2="476" y2="144.0" stroke="#8b949e" stroke-width="1"/><rect x="476" y="133.0" width="69" height="22" rx="5" fill="#39c5cf"/><text x="484" y="148.3" font-family="'IBM Plex Mono', ui-monospace, SFMono-Regular, Menlo, Consolas, monospace" font-size="12" font-weight="500" fill="#ffffff">CAN2 TX</text><rect x="551" y="133.0" width="84" height="22" rx="5" fill="none" stroke="#8b949e" stroke-width="1.5"/><text x="559" y="148.3" font-family="'IBM Plex Mono', ui-monospace, SFMono-Regular, Menlo, Consolas, monospace" font-size="12" font-weight="500" fill="#8b949e">GPIO_IO25</text><text x="277" y="175.5" font-family="'IBM Plex Mono', ui-monospace, SFMono-Regular, Menlo, Consolas, monospace" font-size="10" font-weight="600" fill="#e6edf3">CANL</text><text x="456" y="175.5" text-anchor="end" font-family="'IBM Plex Mono', ui-monospace, SFMono-Regular, Menlo, Consolas, monospace" font-size="10" font-weight="600" fill="#e6edf3">RXD</text><line x1="462" y1="172.0" x2="476" y2="172.0" stroke="#8b949e" stroke-width="1"/><rect x="476" y="161.0" width="69" height="22" rx="5" fill="#39c5cf"/><text x="484" y="176.3" font-family="'IBM Plex Mono', ui-monospace, SFMono-Regular, Menlo, Consolas, monospace" font-size="12" font-weight="500" fill="#ffffff">CAN2 RX</text><rect x="551" y="161.0" width="84" height="22" rx="5" fill="none" stroke="#8b949e" stroke-width="1.5"/><text x="559" y="176.3" font-family="'IBM Plex Mono', ui-monospace, SFMono-Regular, Menlo, Consolas, monospace" font-size="12" font-weight="500" fill="#8b949e">GPIO_IO27</text><g id="io-J4-pin-1" data-pin="1"><rect x="37.0" y="109.0" width="14" height="14" fill="#0d1117" stroke="#8b949e"/><text x="44.0" y="119.0" text-anchor="middle" font-family="'IBM Plex Sans', -apple-system, 'Segoe UI', Helvetica, Arial, sans-serif" font-size="8" font-weight="600" fill="#e6edf3">1</text><line x1="66" y1="116.0" x2="80" y2="116.0" stroke="#8b949e" stroke-width="1"/><rect x="80" y="105.0" width="62" height="22" rx="5" fill="#ff7b72"/><text x="88" y="120.3" font-family="'IBM Plex Mono', ui-monospace, SFMono-Regular, Menlo, Consolas, monospace" font-size="12" font-weight="500" fill="#ffffff">5V out</text><rect x="148" y="105.0" width="107" height="22" rx="5" fill="none" stroke="#ff7b72" stroke-width="1.5"/><text x="156" y="120.3" font-family="'IBM Plex Mono', ui-monospace, SFMono-Regular, Menlo, Consolas, monospace" font-size="12" font-weight="500" fill="#ff7b72">CON_CAN2_5V0</text></g><g id="io-J4-pin-2" data-pin="2"><circle cx="44.0" cy="144.0" r="7" fill="#0d1117" stroke="#8b949e"/><text x="44.0" y="147.0" text-anchor="middle" font-family="'IBM Plex Sans', -apple-system, 'Segoe UI', Helvetica, Arial, sans-serif" font-size="8" font-weight="600" fill="#e6edf3">2</text><line x1="66" y1="144.0" x2="80" y2="144.0" stroke="#8b949e" stroke-width="1"/><rect x="80" y="133.0" width="62" height="22" rx="5" fill="#39c5cf"/><text x="88" y="148.3" font-family="'IBM Plex Mono', ui-monospace, SFMono-Regular, Menlo, Consolas, monospace" font-size="12" font-weight="500" fill="#ffffff">CAN2 H</text><rect x="148" y="133.0" width="107" height="22" rx="5" fill="none" stroke="#39c5cf" stroke-width="1.5"/><text x="156" y="148.3" font-family="'IBM Plex Mono', ui-monospace, SFMono-Regular, Menlo, Consolas, monospace" font-size="12" font-weight="500" fill="#39c5cf">CAN2_H</text><line x1="255" y1="144.0" x2="271" y2="144.0" stroke="#8b949e" stroke-width="1"/></g><g id="io-J4-pin-3" data-pin="3"><circle cx="44.0" cy="172.0" r="7" fill="#0d1117" stroke="#8b949e"/><text x="44.0" y="175.0" text-anchor="middle" font-family="'IBM Plex Sans', -apple-system, 'Segoe UI', Helvetica, Arial, sans-serif" font-size="8" font-weight="600" fill="#e6edf3">3</text><line x1="66" y1="172.0" x2="80" y2="172.0" stroke="#8b949e" stroke-width="1"/><rect x="80" y="161.0" width="62" height="22" rx="5" fill="#39c5cf"/><text x="88" y="176.3" font-family="'IBM Plex Mono', ui-monospace, SFMono-Regular, Menlo, Consolas, monospace" font-size="12" font-weight="500" fill="#ffffff">CAN2 L</text><rect x="148" y="161.0" width="107" height="22" rx="5" fill="none" stroke="#39c5cf" stroke-width="1.5"/><text x="156" y="176.3" font-family="'IBM Plex Mono', ui-monospace, SFMono-Regular, Menlo, Consolas, monospace" font-size="12" font-weight="500" fill="#39c5cf">CAN2_L</text><line x1="255" y1="172.0" x2="271" y2="172.0" stroke="#8b949e" stroke-width="1"/></g><g id="io-J4-pin-4" data-pin="4"><circle cx="44.0" cy="200.0" r="7" fill="#0d1117" stroke="#8b949e"/><text x="44.0" y="203.0" text-anchor="middle" font-family="'IBM Plex Sans', -apple-system, 'Segoe UI', Helvetica, Arial, sans-serif" font-size="8" font-weight="600" fill="#e6edf3">4</text><line x1="66" y1="200.0" x2="80" y2="200.0" stroke="#8b949e" stroke-width="1"/><rect x="80" y="189.0" width="62" height="22" rx="5" fill="#6e7681"/><text x="88" y="204.3" font-family="'IBM Plex Mono', ui-monospace, SFMono-Regular, Menlo, Consolas, monospace" font-size="12" font-weight="500" fill="#ffffff">GND</text></g></svg>
