<svg xmlns="http://www.w3.org/2000/svg" width="361" height="294" viewBox="0 0 361 294" data-theme="light" data-conn="io/J2" data-cat="audio" data-fill="#7d4e00" data-heading="io-j2-spkr"><rect x="0.5" y="0.5" width="360" height="293" rx="10" fill="#ffffff" stroke="#d0d7de"/><text x="16" y="32" font-family="'IBM Plex Sans', -apple-system, 'Segoe UI', Helvetica, Arial, sans-serif" font-size="16" font-weight="700" fill="#1f2328">J2 SPKR</text><text x="16" y="49" font-family="'IBM Plex Sans', -apple-system, 'Segoe UI', Helvetica, Arial, sans-serif" font-size="11" fill="#57606a">JST-PH 2.0 mm 1x4</text><rect x="16" y="68" width="53" height="26" rx="4" fill="#7d4e00"/><text x="42.5" y="79.5" text-anchor="middle" font-family="'IBM Plex Mono', ui-monospace, SFMono-Regular, Menlo, Consolas, monospace" font-size="11" font-weight="500" fill="#ffffff">J2</text><text x="42.5" y="90" text-anchor="middle" font-family="'IBM Plex Sans', -apple-system, 'Segoe UI', Helvetica, Arial, sans-serif" font-size="9" fill="#ffffff">IO board</text><path d="M73 77 l6 4 l-6 4z" fill="#57606a"/><rect x="83" y="68" width="135" height="26" rx="4" fill="#f6f8fa" stroke="#d0d7de"/><text x="150.5" y="79.5" text-anchor="middle" font-family="'IBM Plex Mono', ui-monospace, SFMono-Regular, Menlo, Consolas, monospace" font-size="11" font-weight="500" fill="#1f2328">WM8962B</text><text x="150.5" y="90" text-anchor="middle" font-family="'IBM Plex Sans', -apple-system, 'Segoe UI', Helvetica, Arial, sans-serif" font-size="9" fill="#57606a">audio codec (SAI2 + I2C4)</text><path d="M222 77 l6 4 l-6 4z" fill="#57606a"/><rect x="232" y="68" width="56" height="26" rx="4" fill="#24292f"/><text x="260.0" y="79.5" text-anchor="middle" font-family="'IBM Plex Mono', ui-monospace, SFMono-Regular, Menlo, Consolas, monospace" font-size="11" font-weight="500" fill="#ffffff">i.MX95</text><text x="260.0" y="90" text-anchor="middle" font-family="'IBM Plex Sans', -apple-system, 'Segoe UI', Helvetica, Arial, sans-serif" font-size="9" fill="#ffffff">SoC</text><rect x="22" y="108" width="44" height="124" rx="4" fill="#dfe3e8" stroke="#57606a"/><rect x="18" y="116" width="4" height="108" rx="1" fill="#57606a"/><g id="io-J2-pin-1" data-pin="1"><rect x="37.0" y="121.0" width="14" height="14" fill="#ffffff" stroke="#57606a"/><text x="44.0" y="131.0" text-anchor="middle" font-family="'IBM Plex Sans', -apple-system, 'Segoe UI', Helvetica, Arial, sans-serif" font-size="8" font-weight="600" fill="#1f2328">1</text><line x1="66" y1="128.0" x2="80" y2="128.0" stroke="#57606a" stroke-width="1"/><rect x="80" y="117.0" width="69" height="22" rx="5" fill="#7d4e00"/><text x="88" y="132.3" font-family="'IBM Plex Mono', ui-monospace, SFMono-Regular, Menlo, Consolas, monospace" font-size="12" font-weight="500" fill="#ffffff">Left −</text><rect x="155" y="117.0" width="77" height="22" rx="5" fill="none" stroke="#7d4e00" stroke-width="1.5"/><text x="163" y="132.3" font-family="'IBM Plex Mono', ui-monospace, SFMono-Regular, Menlo, Consolas, monospace" font-size="12" font-weight="500" fill="#7d4e00">SPKOUTLN</text><rect x="238" y="117.0" width="107" height="22" rx="5" fill="none" stroke="#57606a" stroke-width="1.5"/><text x="246" y="132.3" font-family="'IBM Plex Mono', ui-monospace, SFMono-Regular, Menlo, Consolas, monospace" font-size="12" font-weight="500" fill="#57606a">WM8962 codec</text></g><g id="io-J2-pin-2" data-pin="2"><circle cx="44.0" cy="156.0" r="7" fill="#ffffff" stroke="#57606a"/><text x="44.0" y="159.0" text-anchor="middle" font-family="'IBM Plex Sans', -apple-system, 'Segoe UI', Helvetica, Arial, sans-serif" font-size="8" font-weight="600" fill="#1f2328">2</text><line x1="66" y1="156.0" x2="80" y2="156.0" stroke="#57606a" stroke-width="1"/><rect x="80" y="145.0" width="69" height="22" rx="5" fill="#7d4e00"/><text x="88" y="160.3" font-family="'IBM Plex Mono', ui-monospace, SFMono-Regular, Menlo, Consolas, monospace" font-size="12" font-weight="500" fill="#ffffff">Left +</text><rect x="155" y="145.0" width="77" height="22" rx="5" fill="none" stroke="#7d4e00" stroke-width="1.5"/><text x="163" y="160.3" font-family="'IBM Plex Mono', ui-monospace, SFMono-Regular, Menlo, Consolas, monospace" font-size="12" font-weight="500" fill="#7d4e00">SPKOUTLP</text><rect x="238" y="145.0" width="107" height="22" rx="5" fill="none" stroke="#57606a" stroke-width="1.5"/><text x="246" y="160.3" font-family="'IBM Plex Mono', ui-monospace, SFMono-Regular, Menlo, Consolas, monospace" font-size="12" font-weight="500" fill="#57606a">WM8962 codec</text></g><g id="io-J2-pin-3" data-pin="3"><circle cx="44.0" cy="184.0" r="7" fill="#ffffff" stroke="#57606a"/><text x="44.0" y="187.0" text-anchor="middle" font-family="'IBM Plex Sans', -apple-system, 'Segoe UI', Helvetica, Arial, sans-serif" font-size="8" font-weight="600" fill="#1f2328">3</text><line x1="66" y1="184.0" x2="80" y2="184.0" stroke="#57606a" stroke-width="1"/><rect x="80" y="173.0" width="69" height="22" rx="5" fill="#7d4e00"/><text x="88" y="188.3" font-family="'IBM Plex Mono', ui-monospace, SFMono-Regular, Menlo, Consolas, monospace" font-size="12" font-weight="500" fill="#ffffff">Right −</text><rect x="155" y="173.0" width="77" height="22" rx="5" fill="none" stroke="#7d4e00" stroke-width="1.5"/><text x="163" y="188.3" font-family="'IBM Plex Mono', ui-monospace, SFMono-Regular, Menlo, Consolas, monospace" font-size="12" font-weight="500" fill="#7d4e00">SPKOUTRN</text><rect x="238" y="173.0" width="107" height="22" rx="5" fill="none" stroke="#57606a" stroke-width="1.5"/><text x="246" y="188.3" font-family="'IBM Plex Mono', ui-monospace, SFMono-Regular, Menlo, Consolas, monospace" font-size="12" font-weight="500" fill="#57606a">WM8962 codec</text></g><g id="io-J2-pin-4" data-pin="4"><circle cx="44.0" cy="212.0" r="7" fill="#ffffff" stroke="#57606a"/><text x="44.0" y="215.0" text-anchor="middle" font-family="'IBM Plex Sans', -apple-system, 'Segoe UI', Helvetica, Arial, sans-serif" font-size="8" font-weight="600" fill="#1f2328">4</text><line x1="66" y1="212.0" x2="80" y2="212.0" stroke="#57606a" stroke-width="1"/><rect x="80" y="201.0" width="69" height="22" rx="5" fill="#7d4e00"/><text x="88" y="216.3" font-family="'IBM Plex Mono', ui-monospace, SFMono-Regular, Menlo, Consolas, monospace" font-size="12" font-weight="500" fill="#ffffff">Right +</text><rect x="155" y="201.0" width="77" height="22" rx="5" fill="none" stroke="#7d4e00" stroke-width="1.5"/><text x="163" y="216.3" font-family="'IBM Plex Mono', ui-monospace, SFMono-Regular, Menlo, Consolas, monospace" font-size="12" font-weight="500" fill="#7d4e00">SPKOUTRP</text><rect x="238" y="201.0" width="107" height="22" rx="5" fill="none" stroke="#57606a" stroke-width="1.5"/><text x="246" y="216.3" font-family="'IBM Plex Mono', ui-monospace, SFMono-Regular, Menlo, Consolas, monospace" font-size="12" font-weight="500" fill="#57606a">WM8962 codec</text></g><text x="16" y="256" font-family="'IBM Plex Sans', -apple-system, 'Segoe UI', Helvetica, Arial, sans-serif" font-size="12" fill="#57606a">Pin 1: not GND</text><text x="16" y="273" font-family="'IBM Plex Sans', -apple-system, 'Segoe UI', Helvetica, Arial, sans-serif" font-size="12" fill="#57606a">Pin 3: not GND</text></svg>
